<?xml version="1.0" encoding="UTF-8"?>
<!-- Logo La Cinémathèque française (right-aligned) -->
<svg xmlns="http://www.w3.org/2000/svg" version="1.1" width="1000" height="400">
  <path fill="#fff" d="M854.43 104.92c-1.18 0-2.16-0.39-2.92-1.18-0.77-0.79-1.16-1.78-1.16-2.98V4.16c0-1.2 0.39-2.19 1.16-2.98C852.28 0.4 853.25 0 854.43 0h12.79c1.18 0 2.15 0.4 2.93 1.18 0.77 0.79 1.16 1.78 1.16 2.99v80.66h35.65c1.18 0 2.15 0.39 2.93 1.17 0.77 0.78 1.15 1.77 1.15 2.96v11.84c0 1.19-0.39 2.18-1.15 2.96-0.77 0.78-1.75 1.17-2.93 1.17H854.43z"/>
  <path fill="#fff" d="M983.02 104.92c-0.73 0-1.49-0.3-2.31-0.9-0.81-0.6-1.36-1.27-1.63-2.01l-5.17-16.49H943.83l-5.04 16.36c-0.18 0.74-0.68 1.43-1.49 2.08-0.82 0.65-1.63 0.97-2.45 0.97h-12.79c-1.45 0-2.58-0.53-3.4-1.59-0.81-1.06-1-2.33-0.54-3.81L947.64 2.91c0.18-0.74 0.68-1.41 1.5-2.01C949.95 0.3 950.77 0 951.59 0h14.69c0.82 0 1.63 0.3 2.45 0.9 0.82 0.6 1.32 1.27 1.5 2.01l29.53 96.6c0.45 1.48 0.27 2.75-0.54 3.81-0.82 1.06-1.95 1.59-3.4 1.59H983.02zM958.94 25.23l-11.43 41.58h22.59L958.94 25.23z"/>
  <path fill="#fff" d="M70.9 200.83c1 0.18 1.86 0.72 2.59 1.59 0.72 0.88 1 1.87 0.81 2.98-0.54 4.81-1.86 9.17-3.95 13.1s-4.76 7.32-8.03 10.19c-3.27 2.87-7.03 5.08-11.29 6.65-4.26 1.57-8.85 2.36-13.74 2.36-5.17 0-10.02-0.99-14.56-2.98-4.54-1.99-8.48-4.69-11.84-8.11-3.36-3.42-6.01-7.44-7.96-12.06C0.97 209.93 0 204.99 0 199.72v-33.12c0-5.27 0.98-10.21 2.93-14.83 1.95-4.62 4.6-8.64 7.96-12.06 3.36-3.42 7.3-6.12 11.84-8.11 4.54-1.99 9.39-2.98 14.56-2.98 4.9 0 9.48 0.78 13.74 2.36 4.26 1.57 8.03 3.79 11.29 6.65 3.27 2.87 5.94 6.28 8.03 10.26 2.09 3.97 3.4 8.36 3.95 13.17 0.18 1.11-0.09 2.1-0.81 2.98-0.73 0.88-1.59 1.41-2.59 1.59l-12.25 1.94c-1.08 0.19-2.11-0.07-3.06-0.76-0.95-0.69-1.52-1.59-1.7-2.7-0.36-2.03-1-3.99-1.91-5.89-0.91-1.89-2.06-3.58-3.47-5.06-1.41-1.48-3.04-2.65-4.9-3.53-1.86-0.88-3.97-1.32-6.33-1.32-2.18 0-4.24 0.42-6.19 1.25-1.95 0.83-3.65 1.96-5.1 3.4-1.45 1.43-2.61 3.12-3.47 5.06-0.86 1.94-1.29 4.07-1.29 6.38v36.73c0 2.22 0.43 4.34 1.29 6.38 0.86 2.04 2.02 3.79 3.47 5.27 1.45 1.48 3.15 2.66 5.1 3.54 1.95 0.88 4.02 1.32 6.19 1.32 2.09 0 4.06-0.44 5.92-1.31 1.86-0.88 3.49-2.01 4.9-3.39 1.41-1.39 2.59-3 3.54-4.85 0.95-1.85 1.57-3.74 1.84-5.68 0.18-1.2 0.73-2.15 1.63-2.84 0.91-0.69 1.95-0.95 3.13-0.76L70.9 200.83z"/>
  <path fill="#fff" d="M95.52 235.62c-1.18 0-2.15-0.39-2.92-1.18-0.77-0.78-1.16-1.78-1.16-2.98v-96.6c0-1.2 0.38-2.19 1.16-2.98 0.77-0.78 1.75-1.18 2.92-1.18h12.79c1.18 0 2.16 0.4 2.93 1.18 0.77 0.79 1.16 1.78 1.16 2.98v96.6c0 1.2-0.39 2.2-1.16 2.98-0.77 0.79-1.75 1.18-2.93 1.18H95.52z"/>
  <path fill="#fff" d="M191.73 235.62c-0.54 0-1.2-0.23-1.97-0.69-0.77-0.46-1.29-0.92-1.56-1.39l-34.43-60.57v58.49c0 1.2-0.39 2.2-1.16 2.98-0.77 0.79-1.75 1.18-2.92 1.18h-12.79c-1.18 0-2.16-0.39-2.93-1.18-0.77-0.78-1.16-1.78-1.16-2.98v-96.6c0-1.2 0.39-2.19 1.16-2.98 0.77-0.78 1.75-1.18 2.93-1.18h12.93c0.54 0 1.2 0.23 1.97 0.69 0.77 0.46 1.29 0.92 1.56 1.39l33.61 59.18v-57.1c0-1.2 0.39-2.19 1.16-2.98 0.77-0.78 1.75-1.18 2.93-1.18h12.79c1.18 0 2.15 0.39 2.93 1.18 0.77 0.79 1.16 1.78 1.16 2.98v96.6c0 1.2-0.38 2.2-1.15 2.98-0.77 0.79-1.75 1.18-2.93 1.18L191.73 235.62 191.73 235.62z"/>
  <path fill="#fff" d="M293.51 215.52c1.18 0 2.15 0.4 2.93 1.18 0.77 0.79 1.16 1.78 1.16 2.98v11.78c0 1.2-0.39 2.2-1.16 2.98-0.77 0.79-1.75 1.18-2.93 1.18h-61.09c-1.18 0-2.16-0.39-2.93-1.18-0.77-0.78-1.16-1.78-1.16-2.98v-96.6c0-1.2 0.39-2.19 1.16-2.98 0.77-0.78 1.75-1.18 2.93-1.18h60.42c1.18 0 2.15 0.39 2.93 1.18 0.77 0.79 1.16 1.78 1.16 2.98v11.78c0 1.2-0.39 2.19-1.16 2.98-0.77 0.79-1.75 1.18-2.92 1.18h-43.54v19.54h26.67c1.18 0 2.15 0.4 2.92 1.18 0.77 0.79 1.16 1.78 1.16 2.98v11.78c0 1.2-0.38 2.19-1.16 2.98-0.77 0.79-1.74 1.18-2.92 1.18h-26.67v25.08H293.51zM264.8 122.11c-1.18 0-2.15-0.39-2.92-1.18-0.77-0.78-1.16-1.78-1.16-2.98v-8.87c0-1.2 0.38-2.19 1.16-2.98 0.77-0.78 1.75-1.18 2.92-1.18h20.41c1.18 0 2.15 0.39 2.92 1.18 0.77 0.79 1.16 1.78 1.16 2.98v8.87c0 1.2-0.39 2.2-1.16 2.98-0.77 0.79-1.75 1.18-2.92 1.18H264.8z"/>
  <path fill="#fff" d="M379.51 235.62c-1.18 0-2.15-0.39-2.92-1.18-0.77-0.78-1.16-1.78-1.16-2.98v-50.45l-17.14 35.9c-0.82 1.57-2 2.36-3.54 2.36-1.54 0-2.72-0.78-3.54-2.35l-17.01-35.9v50.45c0 1.2-0.38 2.2-1.16 2.98-0.77 0.79-1.75 1.18-2.93 1.18h-12.79c-1.18 0-2.15-0.39-2.92-1.18-0.77-0.78-1.16-1.78-1.16-2.98v-96.6c0-1.2 0.39-2.19 1.16-2.98 0.77-0.78 1.75-1.18 2.92-1.18h11.16c0.72 0 1.45 0.26 2.18 0.76 0.73 0.51 1.23 1.09 1.5 1.73l22.59 47.13 22.73-47.26c0.27-0.64 0.77-1.2 1.5-1.66 0.73-0.46 1.45-0.69 2.18-0.69h11.16c1.18 0 2.15 0.4 2.92 1.18 0.77 0.79 1.16 1.78 1.16 2.98v96.6c0 1.2-0.39 2.2-1.16 2.98-0.77 0.79-1.75 1.18-2.92 1.18H379.51z"/>
  <path fill="#fff" d="M473.12 235.62c-0.72 0-1.49-0.3-2.31-0.9-0.81-0.6-1.36-1.27-1.63-2.01l-5.17-16.49h-30.07l-5.03 16.36c-0.18 0.74-0.68 1.43-1.49 2.08-0.82 0.65-1.63 0.97-2.45 0.97h-12.79c-1.45 0-2.59-0.53-3.4-1.59-0.82-1.06-1-2.33-0.54-3.81l29.52-96.6c0.19-0.74 0.68-1.41 1.5-2.01 0.82-0.6 1.63-0.9 2.45-0.9h14.69c0.82 0 1.64 0.3 2.45 0.9 0.82 0.6 1.31 1.27 1.49 2.01l29.53 96.6c0.45 1.48 0.27 2.75-0.55 3.81-0.82 1.06-1.95 1.59-3.4 1.59H473.12zM449.04 155.93l-11.43 41.58h22.59L449.04 155.93z"/>
  <path fill="#fff" d="M531.23 150.8v80.67c0 1.2-0.39 2.2-1.16 2.98-0.77 0.79-1.75 1.18-2.93 1.18h-12.79c-1.18 0-2.15-0.39-2.92-1.18-0.77-0.78-1.16-1.78-1.16-2.98v-80.67h-22.45c-1.18 0-2.16-0.39-2.93-1.18-0.77-0.78-1.16-1.78-1.16-2.98v-11.78c0-1.2 0.39-2.19 1.16-2.98 0.77-0.78 1.75-1.18 2.93-1.18h65.99c1.18 0 2.16 0.4 2.93 1.18 0.77 0.79 1.16 1.78 1.16 2.98v11.78c0 1.2-0.39 2.19-1.16 2.98-0.77 0.79-1.75 1.18-2.93 1.18H531.23z"/>
  <path fill="#fff" d="M591.51 231.46c0 1.2-0.39 2.2-1.16 2.98-0.77 0.79-1.75 1.18-2.93 1.18h-12.79c-1.18 0-2.15-0.39-2.93-1.18-0.77-0.78-1.15-1.78-1.15-2.98v-96.6c0-1.2 0.38-2.19 1.16-2.98 0.77-0.78 1.75-1.18 2.93-1.18h12.79c1.18 0 2.15 0.39 2.93 1.18 0.77 0.79 1.16 1.78 1.16 2.98v37.01h32.39v-37.01c0-1.2 0.38-2.19 1.16-2.98s1.74-1.18 2.93-1.18h13.2c1.18 0 2.15 0.39 2.93 1.18 0.77 0.79 1.16 1.78 1.16 2.98v96.6c0 1.2-0.39 2.2-1.16 2.98-0.77 0.79-1.75 1.18-2.93 1.18h-12.79c-1.18 0-2.16-0.39-2.93-1.18-0.77-0.78-1.15-1.78-1.15-2.98v-39.5H591.51V231.46L591.51 231.46z"/>
  <path fill="#fff" d="M730.84 215.52c1.18 0 2.15 0.4 2.93 1.18 0.77 0.79 1.16 1.78 1.16 2.98v11.78c0 1.2-0.39 2.2-1.16 2.98-0.77 0.79-1.75 1.18-2.93 1.18h-61.1c-1.18 0-2.15-0.39-2.92-1.18-0.77-0.78-1.15-1.78-1.15-2.98v-96.6c0-1.2 0.38-2.19 1.15-2.98 0.77-0.78 1.75-1.18 2.93-1.18h60.42c1.18 0 2.15 0.39 2.93 1.18 0.77 0.79 1.16 1.78 1.16 2.98v11.78c0 1.2-0.39 2.19-1.15 2.98-0.77 0.79-1.75 1.18-2.93 1.18h-43.54v19.54h26.67c1.18 0 2.15 0.4 2.92 1.18 0.77 0.79 1.15 1.78 1.15 2.98v11.78c0 1.2-0.38 2.19-1.15 2.98-0.77 0.79-1.75 1.18-2.92 1.18h-26.67v25.08H730.84zM677.91 122.11c-1.18 0-2.15-0.39-2.93-1.18-0.77-0.78-1.15-1.78-1.15-2.98v-8.87c0-1.2 0.39-2.19 1.15-2.98 0.77-0.78 1.75-1.18 2.93-1.18h20.41c1.18 0 2.15 0.39 2.93 1.18 0.77 0.79 1.16 1.78 1.16 2.98v8.87c0 1.2-0.39 2.2-1.16 2.98-0.77 0.79-1.75 1.18-2.93 1.18H677.91z"/>
  <path fill="#fff" d="M820.25 199.72c0 5.27-0.98 10.21-2.93 14.83-1.95 4.62-4.62 8.64-8.03 12.06-3.4 3.42-7.37 6.12-11.9 8.11-4.54 1.99-9.39 2.98-14.56 2.98-5.17 0-10.02-0.99-14.56-2.98-4.53-1.99-8.48-4.69-11.84-8.11-3.35-3.42-6.01-7.44-7.96-12.06-1.95-4.62-2.93-9.56-2.93-14.83v-33.12c0-5.27 0.98-10.21 2.93-14.83 1.95-4.62 4.6-8.64 7.96-12.06 3.36-3.42 7.31-6.12 11.84-8.11 4.54-1.99 9.39-2.98 14.56-2.98 5.17 0 10.02 0.99 14.56 2.98 4.53 1.99 8.51 4.69 11.9 8.11 3.4 3.42 6.08 7.44 8.03 12.06 1.95 4.62 2.93 9.56 2.93 14.83V199.72zM799.29 166.74c0-2.31-0.45-4.46-1.36-6.44-0.91-1.99-2.11-3.74-3.61-5.27-1.5-1.52-3.24-2.72-5.24-3.6-2-0.88-4.08-1.32-6.26-1.32-2.18 0-4.27 0.44-6.26 1.32-2 0.88-3.74 2.06-5.24 3.53-1.49 1.48-2.68 3.24-3.54 5.27-0.86 2.03-1.29 4.16-1.29 6.37v33.12c0 2.22 0.43 4.35 1.29 6.38 0.86 2.03 2.05 3.79 3.54 5.27 1.5 1.48 3.24 2.66 5.24 3.53 1.99 0.88 4.08 1.32 6.26 1.32 2.18 0 4.26-0.43 6.26-1.32 2-0.87 3.74-2.05 5.24-3.53 1.5-1.48 2.7-3.23 3.61-5.27 0.91-2.03 1.36-4.16 1.36-6.38V166.74zM772.62 261.4c-1.18 0-2.16-0.39-2.93-1.18-0.77-0.78-1.15-1.78-1.15-2.98v-8.87c0-1.2 0.39-2.2 1.15-2.98 0.77-0.79 1.75-1.18 2.93-1.18h20.41c1.18 0 2.15 0.39 2.93 1.18 0.77 0.78 1.16 1.78 1.16 2.98v8.87c0 1.2-0.39 2.2-1.16 2.98-0.77 0.79-1.74 1.18-2.92 1.18H772.62z"/>
  <path fill="#fff" d="M911.69 199.58c0 5.27-0.98 10.21-2.93 14.83-1.95 4.62-4.62 8.66-8.03 12.13-3.4 3.46-7.37 6.19-11.91 8.18-4.54 1.99-9.39 2.98-14.56 2.98-5.17 0-10.02-0.99-14.56-2.98-4.54-1.99-8.49-4.71-11.84-8.18-3.35-3.47-6.01-7.51-7.96-12.13-1.95-4.62-2.93-9.56-2.93-14.83v-64.86c0-1.2 0.39-2.19 1.16-2.98 0.77-0.78 1.75-1.18 2.92-1.18h12.79c1.18 0 2.16 0.4 2.93 1.18 0.77 0.79 1.16 1.78 1.16 2.98v66.11c0 2.31 0.43 4.48 1.29 6.51 0.86 2.04 2.04 3.81 3.54 5.34 1.5 1.53 3.22 2.73 5.17 3.6 1.95 0.88 4.06 1.32 6.33 1.32 2.27 0 4.39-0.44 6.4-1.32 1.99-0.88 3.74-2.08 5.24-3.6 1.5-1.52 2.68-3.3 3.54-5.34 0.86-2.03 1.3-4.2 1.3-6.51v-66.11c0-1.2 0.39-2.19 1.15-2.98 0.77-0.78 1.75-1.18 2.93-1.18h12.79c1.18 0 2.15 0.4 2.93 1.18 0.77 0.79 1.16 1.78 1.16 2.98L911.69 199.58 911.69 199.58z"/>
  <path fill="#fff" d="M995.92 215.52c1.18 0 2.15 0.4 2.93 1.18 0.77 0.79 1.16 1.78 1.16 2.98v11.78c0 1.2-0.39 2.2-1.16 2.98-0.77 0.79-1.75 1.18-2.93 1.18h-61.1c-1.18 0-2.15-0.39-2.92-1.18-0.77-0.78-1.16-1.78-1.16-2.98v-96.6c0-1.2 0.39-2.19 1.16-2.98 0.77-0.78 1.75-1.18 2.93-1.18h60.42c1.18 0 2.15 0.39 2.93 1.18 0.77 0.79 1.15 1.78 1.15 2.98v11.78c0 1.2-0.38 2.19-1.15 2.98-0.77 0.79-1.75 1.18-2.92 1.18h-43.54v19.54h26.67c1.18 0 2.15 0.4 2.92 1.18 0.77 0.79 1.16 1.78 1.16 2.98v11.78c0 1.2-0.39 2.19-1.16 2.98-0.77 0.79-1.74 1.18-2.92 1.18h-26.67v25.08H995.92z"/>
  <path fill="#fff" d="M301.81 289.4v19.54h26.67c1.18 0 2.15 0.4 2.92 1.18 0.77 0.79 1.16 1.78 1.16 2.98v11.78c0 1.21-0.38 2.2-1.16 2.98-0.77 0.79-1.75 1.18-2.92 1.18h-26.67v41.02c0 1.2-0.39 2.19-1.15 2.98-0.77 0.79-1.75 1.18-2.93 1.18h-12.79c-1.18 0-2.16-0.39-2.93-1.18-0.77-0.79-1.16-1.78-1.16-2.98v-96.6c0-1.2 0.39-2.19 1.16-2.98 0.77-0.78 1.75-1.18 2.93-1.18h61.1c1.18 0 2.15 0.4 2.92 1.18 0.77 0.79 1.16 1.78 1.16 2.98v11.78c0 1.2-0.36 2.2-1.09 2.98-0.73 0.79-1.68 1.18-2.86 1.18L301.81 289.4 301.81 289.4z"/>
  <path fill="#fff" d="M421.28 374.23c-0.73 0-1.47-0.3-2.24-0.9-0.77-0.6-1.29-1.27-1.56-2.01L405.9 336.8h-19.86v33.26c0 1.21-0.39 2.2-1.16 2.98-0.77 0.79-1.75 1.18-2.93 1.18h-12.79c-1.18 0-2.16-0.39-2.93-1.18-0.77-0.79-1.16-1.78-1.16-2.98v-96.6c0-1.2 0.39-2.19 1.16-2.98 0.77-0.78 1.75-1.18 2.93-1.18h37.69c4.54 0 8.8 0.88 12.79 2.63 3.99 1.76 7.48 4.16 10.47 7.21 3 3.05 5.38 6.61 7.15 10.67 1.77 4.07 2.65 8.41 2.65 13.03 0 5.27-1.29 10.32-3.88 15.18-2.58 4.85-6.01 8.99-10.27 12.41l12.79 38.39c0.45 1.48 0.32 2.75-0.41 3.81-0.73 1.07-1.86 1.6-3.4 1.6L421.28 374.23 421.28 374.23zM419.78 303.13c0-1.85-0.36-3.56-1.09-5.13-0.73-1.57-1.68-2.93-2.86-4.09-1.18-1.15-2.54-2.08-4.08-2.77-1.54-0.69-3.18-1.04-4.9-1.04h-20.82v25.78h20.82c1.82 0 3.49-0.32 5.04-0.97s2.9-1.55 4.08-2.7c1.18-1.15 2.11-2.52 2.79-4.09C419.44 306.54 419.78 304.88 419.78 303.13z"/>
  <path fill="#fff" d="M512.59 374.23c-0.73 0-1.5-0.3-2.31-0.9-0.82-0.6-1.36-1.27-1.63-2.01l-5.17-16.49h-30.07l-5.03 16.36c-0.18 0.74-0.68 1.44-1.5 2.08-0.81 0.65-1.63 0.97-2.45 0.97h-12.79c-1.45 0-2.58-0.53-3.4-1.6-0.81-1.06-1-2.33-0.55-3.81l29.53-96.6c0.18-0.74 0.68-1.4 1.5-2.01 0.82-0.6 1.63-0.9 2.45-0.9h14.7c0.82 0 1.63 0.3 2.45 0.9 0.82 0.6 1.31 1.27 1.5 2.01l29.53 96.61c0.46 1.48 0.27 2.75-0.54 3.81-0.81 1.06-1.95 1.6-3.4 1.6H512.59zM488.5 294.53l-11.43 41.58h22.59L488.5 294.53z"/>
  <path fill="#fff" d="M600.08 374.23c-0.55 0-1.2-0.23-1.97-0.69-0.77-0.46-1.29-0.92-1.56-1.39l-34.43-60.57v58.49c0 1.2-0.39 2.19-1.16 2.98-0.77 0.79-1.75 1.18-2.92 1.18h-12.79c-1.18 0-2.16-0.39-2.93-1.18-0.77-0.79-1.16-1.78-1.16-2.98v-96.6c0-1.2 0.39-2.19 1.16-2.98 0.77-0.78 1.75-1.18 2.93-1.18h12.93c0.54 0 1.2 0.23 1.97 0.7 0.77 0.46 1.29 0.92 1.57 1.38l33.61 59.18v-57.1c0-1.2 0.38-2.19 1.16-2.98 0.77-0.78 1.75-1.18 2.93-1.18h12.79c1.18 0 2.15 0.4 2.92 1.18 0.77 0.79 1.16 1.78 1.16 2.98v96.6c0 1.21-0.38 2.2-1.16 2.98-0.77 0.79-1.74 1.18-2.92 1.18L600.08 374.23 600.08 374.23z"/>
  <path fill="#fff" d="M705.26 339.44c1 0.19 1.86 0.72 2.59 1.59 0.72 0.88 1 1.87 0.82 2.98-0.55 4.81-1.86 9.17-3.94 13.1-2.09 3.93-4.76 7.32-8.03 10.19-3.26 2.87-7.03 5.08-11.29 6.65-4.26 1.57-8.84 2.36-13.74 2.36-5.17 0-10.02-0.99-14.56-2.98-4.54-1.98-8.48-4.69-11.84-8.11-3.36-3.42-6.01-7.44-7.96-12.06-1.95-4.62-2.93-9.56-2.93-14.83v-33.12c0-5.27 0.98-10.21 2.93-14.83 1.95-4.62 4.6-8.64 7.96-12.06 3.36-3.42 7.3-6.12 11.84-8.1 4.54-1.99 9.39-2.98 14.56-2.98 4.9 0 9.48 0.78 13.74 2.36 4.26 1.57 8.03 3.79 11.3 6.65 3.27 2.87 5.94 6.28 8.03 10.26 2.08 3.97 3.4 8.36 3.95 13.17 0.18 1.11-0.09 2.1-0.82 2.98-0.73 0.88-1.59 1.41-2.59 1.6l-12.25 1.94c-1.09 0.19-2.11-0.07-3.06-0.76-0.95-0.69-1.52-1.59-1.7-2.7-0.36-2.03-1-4-1.9-5.89-0.91-1.89-2.06-3.58-3.47-5.06-1.41-1.48-3.04-2.65-4.9-3.53-1.86-0.88-3.97-1.32-6.33-1.32-2.18 0-4.24 0.42-6.19 1.25-1.95 0.83-3.65 1.96-5.1 3.39-1.45 1.44-2.61 3.12-3.47 5.06-0.86 1.94-1.29 4.06-1.29 6.38v36.73c0 2.21 0.43 4.34 1.29 6.37 0.86 2.04 2.02 3.79 3.47 5.27 1.45 1.48 3.15 2.66 5.1 3.53 1.95 0.88 4.01 1.32 6.19 1.32 2.09 0 4.06-0.44 5.92-1.32 1.86-0.87 3.49-2.01 4.9-3.39 1.41-1.39 2.59-3 3.54-4.85 0.95-1.85 1.56-3.74 1.84-5.68 0.18-1.2 0.73-2.14 1.63-2.84 0.9-0.69 1.95-0.94 3.13-0.76L705.26 339.44zM661.45 400c-1.18 0-2.15-0.39-2.93-1.17-0.77-0.78-1.16-1.78-1.16-2.98v-8.87c0-1.2 0.39-2.19 1.16-2.98 0.77-0.78 1.75-1.18 2.93-1.18h20.41c1.18 0 2.15 0.39 2.93 1.18 0.77 0.79 1.16 1.78 1.16 2.98v8.87c0 1.2-0.39 2.2-1.16 2.98-0.77 0.78-1.74 1.17-2.93 1.17H661.45z"/>
  <path fill="#fff" d="M780.79 374.23c-0.73 0-1.5-0.3-2.31-0.9-0.82-0.6-1.36-1.27-1.63-2.01l-5.17-16.49h-30.07l-5.03 16.36c-0.18 0.74-0.68 1.44-1.49 2.08-0.82 0.65-1.63 0.97-2.45 0.97h-12.79c-1.45 0-2.59-0.53-3.4-1.6-0.82-1.06-1-2.33-0.54-3.81l29.53-96.6c0.18-0.74 0.68-1.4 1.5-2.01 0.82-0.6 1.64-0.9 2.45-0.9h14.69c0.82 0 1.63 0.3 2.45 0.9 0.81 0.6 1.31 1.27 1.49 2.01l29.53 96.61c0.45 1.48 0.27 2.75-0.55 3.81-0.81 1.06-1.95 1.6-3.4 1.6H780.79zM756.7 294.53l-11.43 41.58h22.59L756.7 294.53z"/>
  <path fill="#fff" d="M813.44 374.23c-1.18 0-2.15-0.39-2.92-1.18-0.77-0.79-1.15-1.78-1.15-2.98v-96.6c0-1.2 0.39-2.19 1.16-2.98 0.77-0.78 1.75-1.18 2.93-1.18h12.79c1.18 0 2.15 0.4 2.93 1.18 0.77 0.79 1.15 1.78 1.15 2.98v96.6c0 1.2-0.39 2.19-1.15 2.98-0.77 0.79-1.75 1.18-2.93 1.18H813.44L813.44 374.23z"/>
  <path fill="#fff" d="M916.45 343.32c0 4.62-0.82 8.94-2.45 12.96-1.63 4.02-3.99 7.51-7.08 10.47-3.08 2.96-6.85 5.27-11.29 6.93-4.45 1.67-9.48 2.49-15.11 2.49-5.26 0-9.93-0.72-14.01-2.16-4.08-1.44-7.6-3.42-10.55-5.93-2.95-2.51-5.35-5.49-7.21-8.93-1.86-3.44-3.2-7.09-4.02-10.97-0.27-1.2-0.09-2.29 0.55-3.26 0.63-0.97 1.54-1.55 2.72-1.73 1.54-0.28 3.13-0.56 4.76-0.83 1.36-0.18 2.77-0.37 4.22-0.56 1.45-0.19 2.76-0.36 3.94-0.55 1.18-0.18 2.2 0.1 3.06 0.83 0.86 0.74 1.38 1.71 1.56 2.91 0.09 1.39 0.43 2.75 1.02 4.09 0.59 1.34 1.48 2.52 2.65 3.54 1.18 1.02 2.65 1.85 4.42 2.49 1.77 0.65 3.88 0.97 6.33 0.97 2.81 0 5.19-0.34 7.14-1.04 1.95-0.69 3.54-1.61 4.77-2.77 1.22-1.15 2.13-2.49 2.72-4.01 0.59-1.52 0.89-3.07 0.89-4.64 0-3.5-0.97-6.39-2.92-8.65-1.95-2.26-4.65-3.9-8.1-4.91l-14.83-4.43c-3.18-1.01-6.08-2.44-8.71-4.29-2.63-1.84-4.9-4.06-6.8-6.64-1.9-2.58-3.38-5.42-4.42-8.51-1.05-3.09-1.56-6.35-1.56-9.76 0-3.78 0.7-7.45 2.11-11 1.4-3.55 3.47-6.66 6.19-9.34 2.72-2.67 6.03-4.82 9.93-6.44 3.9-1.61 8.35-2.42 13.34-2.42 4.9 0 9.16 0.76 12.79 2.29 3.63 1.53 6.67 3.47 9.12 5.82 2.45 2.36 4.38 4.99 5.78 7.9 1.4 2.91 2.38 5.75 2.92 8.52 0.18 1.2-0.07 2.27-0.75 3.19-0.68 0.92-1.61 1.48-2.79 1.66l-12.52 1.94c-1 0.19-1.93-0.04-2.79-0.69-0.86-0.65-1.43-1.48-1.7-2.5-0.09-0.28-0.16-0.57-0.2-0.9-0.05-0.32-0.11-0.62-0.2-0.9-0.36-1.39-1.25-2.84-2.65-4.37-1.41-1.53-3.74-2.29-7.01-2.29-3.44 0-6.21 0.88-8.3 2.63-2.09 1.76-3.13 4.07-3.13 6.93 0 1.66 0.25 3.05 0.75 4.16 0.5 1.11 1.16 2.03 1.98 2.77 0.82 0.74 1.72 1.34 2.72 1.8 1 0.47 1.99 0.83 2.99 1.11l11.7 3.6c2.9 0.92 5.76 1.99 8.58 3.19 2.81 1.2 5.35 2.68 7.62 4.44 1 0.83 2.18 1.92 3.54 3.26 1.36 1.34 2.65 3.03 3.88 5.06 1.23 2.04 2.27 4.48 3.13 7.35C916.02 336.06 916.45 339.44 916.45 343.32z"/>
  <path fill="#fff" d="M995.92 354.13c1.18 0 2.15 0.4 2.93 1.18 0.77 0.78 1.16 1.78 1.16 2.98v11.78c0 1.2-0.39 2.19-1.16 2.98-0.77 0.79-1.75 1.18-2.93 1.18h-61.1c-1.18 0-2.15-0.39-2.92-1.18-0.77-0.79-1.15-1.78-1.15-2.98v-96.6c0-1.2 0.39-2.19 1.16-2.98 0.77-0.78 1.75-1.18 2.93-1.18h60.42c1.18 0 2.15 0.4 2.93 1.18 0.77 0.79 1.15 1.78 1.15 2.98v11.78c0 1.2-0.38 2.2-1.15 2.98-0.77 0.79-1.75 1.18-2.92 1.18h-43.54v19.54h26.67c1.18 0 2.15 0.4 2.92 1.18 0.77 0.79 1.16 1.78 1.16 2.98v11.78c0 1.21-0.39 2.2-1.16 2.98-0.77 0.79-1.74 1.18-2.92 1.18h-26.67v25.09H995.92L995.92 354.13z"/>
</svg>