<?xml version="1.0" encoding="UTF-8"?>
<!-- Logo La Cinémathèque française (left-aligned) -->
<svg xmlns="http://www.w3.org/2000/svg" version="1.1" width="1000" height="400">
  <path fill="#fff" d="M6.4 103.01c-1.18 0-2.16-0.38-2.93-1.15 -0.77-0.77-1.16-1.75-1.16-2.93V4.08c0-1.18 0.39-2.15 1.16-2.92C4.24 0.39 5.22 0 6.4 0h12.79c1.18 0 2.15 0.39 2.93 1.16 0.77 0.77 1.16 1.75 1.16 2.93v79.19H58.92c1.18 0 2.15 0.39 2.93 1.15 0.77 0.77 1.16 1.73 1.16 2.9v11.62c0 1.17-0.39 2.14-1.15 2.91 -0.77 0.77-1.75 1.15-2.93 1.15H6.4z"/>
  <path fill="#fff" d="M134.98 103.01c-0.73 0-1.49-0.29-2.31-0.88 -0.81-0.59-1.36-1.25-1.63-1.97l-5.17-16.19H95.79l-5.03 16.06c-0.18 0.73-0.68 1.41-1.5 2.04 -0.82 0.64-1.63 0.95-2.45 0.95H74.02c-1.45 0-2.59-0.52-3.4-1.56 -0.82-1.04-1-2.29-0.54-3.74L99.6 2.86c0.18-0.72 0.68-1.38 1.5-1.97C101.92 0.3 102.73 0 103.55 0h14.69c0.82 0 1.63 0.3 2.45 0.89 0.82 0.59 1.31 1.25 1.5 1.97l29.53 94.84c0.45 1.45 0.27 2.7-0.54 3.74 -0.82 1.04-1.95 1.56-3.4 1.56H134.98zM110.9 24.77L99.47 65.59h22.59L110.9 24.77z"/>
  <path fill="#fff" d="M70.9 204.93c1 0.18 1.86 0.7 2.59 1.56 0.72 0.86 1 1.84 0.82 2.93 -0.54 4.72-1.86 9-3.95 12.86 -2.09 3.86-4.76 7.19-8.03 10 -3.27 2.81-7.03 4.99-11.29 6.53 -4.26 1.54-8.85 2.31-13.74 2.31 -5.17 0-10.02-0.98-14.56-2.93s-8.48-4.6-11.84-7.96c-3.36-3.36-6.01-7.3-7.96-11.84C0.97 213.86 0 209.01 0 203.84v-32.52c0-5.17 0.97-10.02 2.93-14.56 1.95-4.54 4.6-8.48 7.96-11.84 3.36-3.35 7.3-6.01 11.84-7.96 4.54-1.95 9.39-2.92 14.56-2.92 4.9 0 9.48 0.77 13.74 2.31 4.26 1.54 8.03 3.72 11.29 6.53 3.27 2.81 5.94 6.17 8.03 10.07 2.09 3.9 3.4 8.21 3.95 12.93 0.18 1.09-0.09 2.07-0.81 2.93 -0.73 0.86-1.59 1.39-2.59 1.57l-12.25 1.91c-1.09 0.18-2.11-0.07-3.06-0.75 -0.95-0.68-1.52-1.56-1.7-2.65 -0.36-1.99-1-3.92-1.91-5.78 -0.91-1.86-2.06-3.51-3.47-4.97 -1.41-1.45-3.04-2.61-4.9-3.47 -1.86-0.86-3.97-1.29-6.33-1.29 -2.18 0-4.24 0.41-6.19 1.23 -1.95 0.82-3.65 1.93-5.1 3.33 -1.45 1.41-2.61 3.06-3.47 4.97s-1.29 3.99-1.29 6.26v36.06c0 2.18 0.43 4.27 1.29 6.26 0.86 2 2.02 3.72 3.47 5.17 1.45 1.45 3.15 2.61 5.1 3.47 1.95 0.87 4.01 1.29 6.19 1.29 2.09 0 4.06-0.43 5.92-1.29 1.86-0.86 3.49-1.97 4.9-3.33 1.41-1.36 2.59-2.95 3.54-4.76 0.95-1.81 1.57-3.67 1.84-5.58 0.18-1.18 0.73-2.11 1.63-2.79 0.91-0.68 1.95-0.93 3.13-0.75L70.9 204.93z"/>
  <path fill="#fff" d="M95.52 239.08c-1.18 0-2.15-0.38-2.92-1.15 -0.77-0.77-1.16-1.75-1.16-2.93v-94.84c0-1.18 0.38-2.15 1.16-2.93 0.77-0.77 1.75-1.16 2.92-1.16h12.79c1.18 0 2.15 0.39 2.93 1.16 0.77 0.77 1.16 1.75 1.16 2.93v94.84c0 1.18-0.39 2.15-1.16 2.93 -0.77 0.77-1.75 1.16-2.93 1.16H95.52z"/>
  <path fill="#fff" d="M191.73 239.08c-0.54 0-1.2-0.22-1.97-0.68 -0.77-0.45-1.29-0.9-1.56-1.36l-34.43-59.46v57.42c0 1.18-0.39 2.15-1.16 2.93 -0.77 0.77-1.75 1.16-2.92 1.16H136.89c-1.18 0-2.16-0.38-2.93-1.15 -0.77-0.77-1.16-1.75-1.16-2.93v-94.84c0-1.18 0.39-2.15 1.16-2.93 0.77-0.77 1.75-1.16 2.93-1.16h12.93c0.54 0 1.2 0.23 1.97 0.68 0.77 0.46 1.29 0.91 1.56 1.36l33.61 58.1v-56.06c0-1.18 0.39-2.15 1.16-2.93 0.77-0.77 1.75-1.16 2.93-1.16h12.79c1.18 0 2.15 0.39 2.93 1.16 0.77 0.77 1.16 1.75 1.16 2.93v94.84c0 1.18-0.39 2.15-1.16 2.93 -0.77 0.77-1.75 1.16-2.93 1.16H191.73z"/>
  <path fill="#fff" d="M293.51 219.35c1.18 0 2.15 0.39 2.93 1.16 0.77 0.77 1.16 1.75 1.16 2.93v11.57c0 1.18-0.39 2.15-1.16 2.93 -0.77 0.77-1.75 1.16-2.93 1.16h-61.1c-1.18 0-2.16-0.38-2.93-1.15 -0.77-0.77-1.16-1.75-1.16-2.93v-94.84c0-1.18 0.39-2.15 1.16-2.93 0.77-0.77 1.75-1.16 2.93-1.16h60.42c1.18 0 2.15 0.39 2.93 1.16 0.77 0.77 1.16 1.75 1.16 2.93v11.57c0 1.18-0.39 2.15-1.16 2.93 -0.77 0.77-1.75 1.16-2.93 1.16h-43.54v19.19h26.67c1.18 0 2.15 0.39 2.92 1.16 0.77 0.77 1.16 1.75 1.16 2.93v11.57c0 1.18-0.39 2.16-1.16 2.93 -0.77 0.77-1.74 1.16-2.92 1.16h-26.67v24.63H293.51zM264.8 127.64c-1.18 0-2.15-0.38-2.92-1.16 -0.77-0.77-1.16-1.75-1.16-2.93v-8.71c0-1.18 0.38-2.15 1.16-2.93 0.77-0.77 1.75-1.16 2.92-1.16h20.41c1.18 0 2.15 0.39 2.92 1.16 0.77 0.77 1.16 1.75 1.16 2.93v8.71c0 1.18-0.39 2.16-1.16 2.93 -0.77 0.77-1.75 1.16-2.92 1.16H264.8z"/>
  <path fill="#fff" d="M379.51 239.08c-1.18 0-2.15-0.38-2.92-1.15 -0.77-0.77-1.16-1.75-1.16-2.93V185.47l-17.14 35.24c-0.82 1.54-2 2.31-3.54 2.31 -1.54 0-2.72-0.77-3.54-2.31l-17.01-35.24v49.53c0 1.18-0.39 2.15-1.16 2.93s-1.75 1.16-2.93 1.16h-12.79c-1.18 0-2.15-0.38-2.92-1.15 -0.77-0.77-1.16-1.75-1.16-2.93v-94.84c0-1.18 0.39-2.15 1.16-2.93 0.77-0.77 1.75-1.16 2.92-1.16h11.16c0.72 0 1.45 0.25 2.18 0.75 0.73 0.5 1.22 1.07 1.5 1.7l22.59 46.27 22.73-46.4c0.27-0.63 0.77-1.18 1.5-1.63 0.73-0.45 1.45-0.68 2.18-0.68h11.16c1.18 0 2.15 0.39 2.92 1.16 0.77 0.77 1.16 1.75 1.16 2.93v94.84c0 1.18-0.39 2.15-1.16 2.93 -0.77 0.77-1.75 1.16-2.92 1.16H379.51z"/>
  <path fill="#fff" d="M473.12 239.08c-0.73 0-1.49-0.29-2.31-0.88 -0.81-0.59-1.36-1.25-1.63-1.97l-5.17-16.19h-30.07L428.9 236.09c-0.18 0.73-0.68 1.41-1.49 2.04 -0.82 0.64-1.63 0.95-2.45 0.95h-12.79c-1.45 0-2.59-0.52-3.4-1.56 -0.82-1.04-1-2.29-0.54-3.74l29.53-94.84c0.18-0.72 0.68-1.38 1.5-1.97 0.82-0.59 1.63-0.88 2.45-0.88h14.69c0.82 0 1.63 0.29 2.45 0.88 0.82 0.59 1.31 1.25 1.5 1.97l29.53 94.84c0.45 1.45 0.27 2.7-0.55 3.74 -0.82 1.04-1.95 1.56-3.4 1.56H473.12zM449.04 160.84l-11.43 40.82h22.59L449.04 160.84z"/>
  <path fill="#fff" d="M531.23 155.81v79.19c0 1.18-0.39 2.15-1.16 2.93 -0.77 0.77-1.75 1.16-2.93 1.16h-12.79c-1.18 0-2.16-0.38-2.93-1.15s-1.15-1.75-1.15-2.93v-79.19h-22.45c-1.18 0-2.16-0.38-2.93-1.16 -0.77-0.77-1.16-1.75-1.16-2.92v-11.57c0-1.18 0.39-2.15 1.16-2.93 0.77-0.77 1.75-1.16 2.93-1.16h65.99c1.18 0 2.16 0.39 2.93 1.16 0.77 0.77 1.16 1.75 1.16 2.93v11.57c0 1.18-0.39 2.15-1.16 2.93 -0.77 0.77-1.75 1.16-2.93 1.16H531.23z"/>
  <path fill="#fff" d="M591.51 235c0 1.18-0.39 2.15-1.16 2.93 -0.77 0.77-1.75 1.16-2.93 1.16h-12.79c-1.18 0-2.15-0.38-2.93-1.15 -0.77-0.77-1.15-1.75-1.15-2.93v-94.84c0-1.18 0.38-2.15 1.16-2.93 0.77-0.77 1.75-1.16 2.93-1.16h12.79c1.18 0 2.16 0.39 2.93 1.16 0.77 0.77 1.16 1.75 1.16 2.93v36.33h32.39v-36.33c0-1.18 0.38-2.15 1.16-2.93 0.77-0.77 1.75-1.16 2.93-1.16h13.2c1.18 0 2.15 0.39 2.93 1.16 0.77 0.77 1.16 1.75 1.16 2.93v94.84c0 1.18-0.39 2.15-1.16 2.93 -0.77 0.77-1.75 1.16-2.93 1.16h-12.79c-1.18 0-2.16-0.38-2.93-1.15 -0.77-0.77-1.16-1.75-1.16-2.93V196.22h-32.79V235z"/>
  <path fill="#fff" d="M730.85 219.35c1.18 0 2.15 0.39 2.93 1.16 0.77 0.77 1.16 1.75 1.16 2.93v11.57c0 1.18-0.39 2.15-1.16 2.93 -0.77 0.77-1.75 1.16-2.93 1.16h-61.1c-1.18 0-2.15-0.38-2.93-1.15s-1.15-1.75-1.15-2.93v-94.84c0-1.18 0.38-2.15 1.15-2.93 0.77-0.77 1.75-1.16 2.93-1.16h60.42c1.18 0 2.15 0.39 2.93 1.16 0.77 0.77 1.16 1.75 1.16 2.93v11.57c0 1.18-0.39 2.15-1.15 2.93 -0.77 0.77-1.75 1.16-2.93 1.16h-43.54v19.19h26.67c1.18 0 2.15 0.39 2.92 1.16 0.77 0.77 1.16 1.75 1.16 2.93v11.57c0 1.18-0.38 2.16-1.16 2.93 -0.77 0.77-1.74 1.16-2.92 1.16h-26.67v24.63H730.85zM677.92 127.64c-1.18 0-2.15-0.38-2.93-1.16 -0.77-0.77-1.15-1.75-1.15-2.93v-8.71c0-1.18 0.39-2.15 1.15-2.93 0.77-0.77 1.75-1.16 2.93-1.16h20.41c1.18 0 2.16 0.39 2.93 1.16 0.77 0.77 1.16 1.75 1.16 2.93v8.71c0 1.18-0.39 2.16-1.16 2.93 -0.77 0.77-1.75 1.16-2.92 1.16H677.92z"/>
  <path fill="#fff" d="M820.25 203.84c0 5.17-0.98 10.02-2.93 14.56 -1.95 4.54-4.62 8.48-8.03 11.84 -3.4 3.36-7.37 6.01-11.9 7.96 -4.54 1.95-9.39 2.93-14.56 2.93 -5.17 0-10.02-0.98-14.56-2.93s-8.48-4.6-11.84-7.96c-3.35-3.36-6.01-7.3-7.96-11.84 -1.95-4.54-2.92-9.39-2.92-14.56v-32.52c0-5.17 0.98-10.02 2.92-14.56 1.95-4.54 4.6-8.48 7.96-11.84 3.36-3.35 7.3-6.01 11.84-7.96 4.54-1.95 9.39-2.92 14.56-2.92 5.17 0 10.02 0.98 14.56 2.93 4.53 1.95 8.51 4.6 11.91 7.96 3.41 3.36 6.08 7.3 8.03 11.84 1.95 4.54 2.93 9.39 2.93 14.56V203.84zM799.29 171.46c0-2.27-0.45-4.37-1.36-6.33 -0.91-1.95-2.11-3.67-3.61-5.17 -1.5-1.5-3.24-2.67-5.24-3.54 -2-0.86-4.08-1.29-6.26-1.29 -2.18 0-4.27 0.43-6.26 1.29 -2 0.87-3.74 2.02-5.24 3.47 -1.49 1.45-2.68 3.18-3.54 5.17 -0.86 2-1.29 4.08-1.29 6.26v32.52c0 2.18 0.43 4.27 1.29 6.26 0.86 2 2.05 3.72 3.54 5.17 1.5 1.45 3.24 2.61 5.24 3.47 1.99 0.87 4.08 1.29 6.26 1.29 2.18 0 4.26-0.43 6.26-1.29 2-0.86 3.74-2.02 5.24-3.47 1.5-1.45 2.7-3.17 3.61-5.17 0.91-1.99 1.36-4.08 1.36-6.26V171.46zM772.62 264.39c-1.18 0-2.16-0.39-2.93-1.16 -0.77-0.77-1.16-1.75-1.16-2.93v-8.71c0-1.18 0.39-2.16 1.16-2.93 0.77-0.77 1.75-1.16 2.93-1.16h20.41c1.18 0 2.15 0.39 2.93 1.16 0.77 0.77 1.16 1.75 1.16 2.93v8.71c0 1.18-0.39 2.16-1.16 2.93 -0.77 0.77-1.75 1.16-2.93 1.16H772.62z"/>
  <path fill="#fff" d="M911.69 203.7c0 5.17-0.98 10.02-2.93 14.56 -1.95 4.54-4.62 8.5-8.03 11.91 -3.4 3.4-7.37 6.08-11.91 8.03s-9.39 2.93-14.56 2.93c-5.17 0-10.02-0.98-14.56-2.93 -4.54-1.95-8.49-4.63-11.84-8.03 -3.35-3.4-6.01-7.37-7.96-11.91 -1.95-4.54-2.93-9.39-2.93-14.56v-63.68c0-1.18 0.39-2.15 1.16-2.93 0.77-0.77 1.74-1.16 2.92-1.16h12.79c1.18 0 2.16 0.39 2.93 1.16 0.77 0.77 1.16 1.75 1.16 2.93v64.91c0 2.27 0.43 4.4 1.29 6.4 0.86 2 2.04 3.74 3.54 5.24s3.22 2.68 5.17 3.54c1.95 0.87 4.06 1.29 6.33 1.29 2.27 0 4.4-0.43 6.4-1.29 1.99-0.86 3.74-2.04 5.24-3.54 1.5-1.5 2.67-3.24 3.54-5.24 0.86-1.99 1.29-4.13 1.29-6.39v-64.91c0-1.18 0.39-2.15 1.15-2.93 0.77-0.77 1.75-1.16 2.93-1.16h12.79c1.18 0 2.15 0.39 2.93 1.16 0.77 0.77 1.16 1.75 1.16 2.93V203.7z"/>
  <path fill="#fff" d="M995.92 219.35c1.18 0 2.15 0.39 2.93 1.16 0.77 0.77 1.16 1.75 1.16 2.93v11.57c0 1.18-0.39 2.15-1.16 2.93 -0.77 0.77-1.75 1.16-2.93 1.16H934.82c-1.18 0-2.15-0.38-2.93-1.15 -0.77-0.77-1.16-1.75-1.16-2.93v-94.84c0-1.18 0.39-2.15 1.16-2.93 0.77-0.77 1.75-1.16 2.93-1.16h60.42c1.18 0 2.15 0.39 2.92 1.16 0.77 0.77 1.15 1.75 1.15 2.93v11.57c0 1.18-0.39 2.15-1.15 2.93 -0.77 0.77-1.75 1.16-2.92 1.16h-43.54v19.19h26.67c1.18 0 2.15 0.39 2.93 1.16 0.77 0.77 1.16 1.75 1.16 2.93v11.57c0 1.18-0.39 2.16-1.16 2.93 -0.77 0.77-1.75 1.16-2.92 1.16h-26.67v24.63H995.92z"/>
  <path fill="#fff" d="M23.27 291.88v19.19H49.94c1.18 0 2.15 0.39 2.92 1.16 0.77 0.77 1.16 1.75 1.16 2.93v11.57c0 1.18-0.39 2.16-1.16 2.93 -0.77 0.77-1.75 1.16-2.92 1.16H23.27v40.28c0 1.18-0.39 2.15-1.15 2.93 -0.77 0.77-1.75 1.16-2.93 1.16H6.4c-1.18 0-2.16-0.39-2.93-1.16 -0.77-0.77-1.16-1.75-1.16-2.93v-94.84c0-1.18 0.39-2.15 1.16-2.93 0.77-0.77 1.75-1.16 2.93-1.16h61.1c1.18 0 2.15 0.39 2.92 1.16 0.77 0.77 1.16 1.75 1.16 2.93v11.56c0 1.18-0.36 2.16-1.09 2.93 -0.73 0.77-1.68 1.16-2.86 1.16H23.27z"/>
  <path fill="#fff" d="M142.74 375.16c-0.73 0-1.47-0.29-2.24-0.89 -0.77-0.59-1.29-1.25-1.56-1.97l-11.57-33.88h-19.86v32.66c0 1.18-0.39 2.15-1.16 2.93 -0.77 0.77-1.75 1.16-2.93 1.16H90.62c-1.18 0-2.16-0.39-2.93-1.16 -0.77-0.77-1.16-1.75-1.16-2.93v-94.84c0-1.18 0.39-2.15 1.16-2.93 0.77-0.77 1.75-1.16 2.93-1.16h37.69c4.54 0 8.8 0.87 12.79 2.59 3.99 1.73 7.48 4.08 10.48 7.08 3 3 5.38 6.49 7.15 10.48 1.77 3.99 2.65 8.25 2.65 12.79 0 5.17-1.29 10.14-3.88 14.9 -2.59 4.77-6.01 8.82-10.27 12.18l12.79 37.69c0.45 1.45 0.32 2.7-0.41 3.74 -0.73 1.04-1.86 1.57-3.4 1.57H142.74zM141.24 305.35c0-1.81-0.36-3.49-1.09-5.03 -0.73-1.54-1.68-2.88-2.86-4.01 -1.18-1.13-2.54-2.04-4.08-2.72 -1.54-0.68-3.18-1.02-4.9-1.02h-20.82v25.31h20.82c1.82 0 3.49-0.32 5.03-0.95 1.54-0.63 2.9-1.52 4.08-2.65 1.18-1.13 2.11-2.47 2.79-4.01C140.9 308.71 141.24 307.08 141.24 305.35z"/>
  <path fill="#fff" d="M234.05 375.16c-0.73 0-1.5-0.29-2.31-0.89 -0.82-0.59-1.36-1.25-1.63-1.97l-5.17-16.19h-30.07l-5.03 16.06c-0.18 0.73-0.68 1.41-1.5 2.04 -0.81 0.64-1.63 0.95-2.45 0.95h-12.79c-1.45 0-2.58-0.52-3.4-1.57 -0.81-1.04-1-2.29-0.54-3.74l29.53-94.84c0.18-0.72 0.68-1.38 1.5-1.97 0.82-0.59 1.63-0.89 2.45-0.89h14.7c0.82 0 1.63 0.3 2.45 0.89 0.82 0.59 1.31 1.25 1.5 1.97l29.53 94.85c0.45 1.45 0.27 2.7-0.54 3.74 -0.81 1.04-1.95 1.57-3.4 1.57H234.05zM209.96 296.91l-11.43 40.83h22.59L209.96 296.91z"/>
  <path fill="#fff" d="M321.54 375.16c-0.54 0-1.2-0.23-1.97-0.68 -0.77-0.45-1.29-0.91-1.57-1.36l-34.43-59.46v57.43c0 1.18-0.39 2.15-1.16 2.93 -0.77 0.77-1.75 1.16-2.93 1.16h-12.79c-1.18 0-2.16-0.39-2.93-1.16 -0.77-0.77-1.16-1.75-1.16-2.93v-94.84c0-1.18 0.39-2.15 1.16-2.93 0.77-0.77 1.75-1.16 2.93-1.16h12.93c0.54 0 1.2 0.23 1.97 0.68 0.77 0.45 1.29 0.91 1.57 1.36l33.61 58.1v-56.06c0-1.18 0.38-2.15 1.16-2.93 0.77-0.77 1.75-1.16 2.93-1.16h12.79c1.18 0 2.15 0.39 2.92 1.16 0.77 0.77 1.16 1.75 1.16 2.93v94.84c0 1.18-0.39 2.15-1.16 2.93 -0.77 0.77-1.75 1.16-2.92 1.16H321.54z"/>
  <path fill="#fff" d="M426.73 341c1 0.18 1.86 0.7 2.59 1.57 0.72 0.86 1 1.84 0.82 2.93 -0.54 4.72-1.86 9-3.94 12.86 -2.09 3.86-4.76 7.19-8.03 10 -3.27 2.81-7.03 4.99-11.29 6.53 -4.26 1.54-8.85 2.31-13.74 2.31 -5.17 0-10.02-0.98-14.56-2.93 -4.54-1.95-8.48-4.6-11.84-7.96 -3.36-3.36-6.01-7.3-7.96-11.84 -1.95-4.53-2.93-9.39-2.93-14.56v-32.52c0-5.17 0.97-10.02 2.93-14.56 1.95-4.54 4.6-8.48 7.96-11.84 3.36-3.35 7.3-6.01 11.84-7.96 4.54-1.95 9.39-2.93 14.56-2.93 4.9 0 9.48 0.77 13.74 2.31 4.26 1.54 8.03 3.72 11.3 6.53 3.27 2.81 5.94 6.17 8.03 10.07 2.09 3.9 3.4 8.21 3.95 12.93 0.18 1.09-0.09 2.07-0.81 2.93 -0.73 0.86-1.59 1.39-2.59 1.57l-12.25 1.9c-1.09 0.18-2.11-0.07-3.06-0.75 -0.95-0.68-1.52-1.56-1.7-2.65 -0.36-2-1-3.92-1.9-5.78 -0.91-1.86-2.06-3.51-3.47-4.96 -1.41-1.45-3.04-2.61-4.9-3.47 -1.86-0.86-3.97-1.29-6.33-1.29 -2.18 0-4.24 0.41-6.19 1.23 -1.95 0.82-3.65 1.93-5.1 3.33 -1.45 1.41-2.61 3.06-3.47 4.97 -0.86 1.9-1.29 3.99-1.29 6.26v36.06c0 2.17 0.43 4.26 1.29 6.26 0.86 2 2.02 3.72 3.47 5.17 1.45 1.45 3.15 2.61 5.1 3.47 1.95 0.86 4.01 1.29 6.19 1.29 2.09 0 4.06-0.43 5.92-1.29 1.86-0.86 3.49-1.97 4.9-3.33 1.41-1.36 2.59-2.95 3.54-4.76 0.95-1.81 1.56-3.67 1.84-5.58 0.18-1.18 0.72-2.11 1.63-2.79 0.91-0.68 1.95-0.93 3.13-0.75L426.73 341zM382.91 400.47c-1.18 0-2.16-0.39-2.93-1.15 -0.77-0.77-1.16-1.75-1.16-2.93v-8.71c0-1.18 0.39-2.15 1.16-2.93 0.77-0.77 1.75-1.16 2.93-1.16h20.41c1.18 0 2.15 0.39 2.93 1.16 0.77 0.77 1.16 1.75 1.16 2.93v8.71c0 1.18-0.39 2.16-1.16 2.93 -0.77 0.77-1.75 1.15-2.93 1.15H382.91z"/>
  <path fill="#fff" d="M502.25 375.16c-0.73 0-1.5-0.29-2.31-0.89 -0.82-0.59-1.36-1.25-1.63-1.97l-5.17-16.19h-30.07l-5.03 16.06c-0.18 0.73-0.68 1.41-1.49 2.04 -0.82 0.64-1.63 0.95-2.45 0.95h-12.79c-1.45 0-2.59-0.52-3.4-1.57 -0.82-1.04-1-2.29-0.55-3.74l29.53-94.84c0.18-0.72 0.68-1.38 1.5-1.97 0.82-0.59 1.63-0.89 2.45-0.89h14.69c0.82 0 1.63 0.3 2.45 0.89 0.81 0.59 1.31 1.25 1.49 1.97l29.53 94.85c0.45 1.45 0.27 2.7-0.55 3.74 -0.81 1.04-1.95 1.57-3.4 1.57H502.25zM478.16 296.91l-11.43 40.83h22.59L478.16 296.91z"/>
  <path fill="#fff" d="M534.9 375.16c-1.18 0-2.15-0.39-2.93-1.16 -0.77-0.77-1.16-1.75-1.16-2.93v-94.84c0-1.18 0.39-2.15 1.16-2.93 0.77-0.77 1.75-1.16 2.93-1.16h12.79c1.18 0 2.15 0.39 2.93 1.16 0.77 0.77 1.15 1.75 1.15 2.93v94.84c0 1.18-0.39 2.15-1.15 2.93 -0.77 0.77-1.75 1.16-2.93 1.16H534.9z"/>
  <path fill="#fff" d="M637.91 344.81c0 4.54-0.82 8.78-2.45 12.72 -1.63 3.95-3.99 7.37-7.08 10.28 -3.08 2.9-6.85 5.17-11.29 6.8 -4.45 1.63-9.48 2.45-15.11 2.45 -5.26 0-9.93-0.71-14.01-2.12 -4.08-1.42-7.6-3.36-10.55-5.83 -2.95-2.46-5.35-5.39-7.21-8.76 -1.86-3.37-3.2-6.97-4.01-10.78 -0.27-1.18-0.09-2.25 0.55-3.2 0.63-0.95 1.54-1.52 2.72-1.7 1.54-0.27 3.13-0.54 4.76-0.81 1.36-0.18 2.77-0.36 4.22-0.55 1.45-0.18 2.76-0.36 3.94-0.54 1.18-0.18 2.2 0.09 3.06 0.82 0.86 0.73 1.38 1.68 1.57 2.86 0.09 1.36 0.43 2.7 1.02 4.01 0.59 1.32 1.48 2.47 2.65 3.47 1.18 1 2.65 1.82 4.42 2.45 1.77 0.64 3.88 0.95 6.33 0.95 2.81 0 5.19-0.34 7.14-1.02 1.95-0.68 3.54-1.58 4.76-2.72 1.23-1.13 2.13-2.44 2.72-3.94 0.59-1.49 0.89-3.01 0.89-4.55 0-3.44-0.98-6.27-2.93-8.49 -1.95-2.22-4.65-3.83-8.1-4.82l-14.83-4.35c-3.18-0.99-6.08-2.4-8.71-4.21 -2.63-1.81-4.9-3.99-6.8-6.52 -1.9-2.53-3.38-5.32-4.42-8.35 -1.05-3.03-1.57-6.23-1.57-9.58 0-3.71 0.7-7.31 2.11-10.8 1.41-3.48 3.47-6.54 6.19-9.17 2.72-2.62 6.03-4.73 9.93-6.32 3.9-1.58 8.35-2.38 13.34-2.38 4.9 0 9.16 0.75 12.79 2.24 3.63 1.5 6.67 3.4 9.12 5.72 2.45 2.31 4.38 4.9 5.78 7.76 1.41 2.86 2.38 5.65 2.92 8.37 0.18 1.18-0.07 2.23-0.74 3.13 -0.68 0.91-1.61 1.45-2.79 1.63l-12.52 1.9c-1 0.18-1.93-0.04-2.79-0.68 -0.86-0.64-1.43-1.45-1.7-2.45 -0.09-0.27-0.16-0.56-0.2-0.89 -0.05-0.32-0.11-0.61-0.2-0.88 -0.37-1.36-1.25-2.79-2.65-4.29 -1.41-1.5-3.74-2.24-7.01-2.24 -3.45 0-6.21 0.86-8.3 2.58 -2.09 1.73-3.13 3.99-3.13 6.81 0 1.63 0.25 2.99 0.75 4.08 0.5 1.09 1.16 1.99 1.98 2.72 0.82 0.73 1.72 1.32 2.72 1.77 1 0.46 1.99 0.82 2.99 1.09l11.7 3.54c2.9 0.91 5.76 1.95 8.57 3.13 2.81 1.18 5.35 2.63 7.62 4.36 1 0.82 2.18 1.88 3.54 3.2 1.36 1.32 2.65 2.97 3.88 4.97 1.23 2 2.27 4.4 3.13 7.21C637.48 337.69 637.91 341 637.91 344.81z"/>
  <path fill="#fff" d="M717.38 355.43c1.18 0 2.15 0.39 2.93 1.16 0.77 0.77 1.16 1.75 1.16 2.93v11.57c0 1.18-0.39 2.15-1.16 2.93 -0.77 0.77-1.75 1.16-2.93 1.16h-61.1c-1.18 0-2.15-0.39-2.93-1.16 -0.77-0.77-1.15-1.75-1.15-2.93v-94.84c0-1.18 0.39-2.15 1.15-2.93 0.77-0.77 1.75-1.16 2.93-1.16h60.42c1.18 0 2.15 0.39 2.92 1.16 0.77 0.77 1.15 1.75 1.15 2.93v11.56c0 1.18-0.39 2.16-1.15 2.93 -0.77 0.77-1.75 1.16-2.92 1.16h-43.54v19.19h26.67c1.18 0 2.15 0.39 2.92 1.16 0.77 0.77 1.16 1.75 1.16 2.93v11.57c0 1.18-0.39 2.16-1.16 2.93 -0.77 0.77-1.75 1.16-2.92 1.16h-26.67v24.63H717.38z"/>
</svg>