<?xml version="1.0" encoding="UTF-8"?>
<svg version="1.1" xmlns="http://www.w3.org/2000/svg" width="145" height="1000" viewBox="0 0 145 1000">
  <polygon fill="#fff" points="-0.12 56.34 -0.12 18.81 18.49 0 112.4 0 131.2 18.81 131.2 56.34 112.39 75.16 84.21 75.16 84.21 46.98 103.03 46.98 103.03 28.17 27.86 28.17 27.86 46.98 46.68 46.98 46.68 75.16 18.5 75.16 "/>
  <rect fill="#fff" x="13.05" y="90.2" width="131.6" height="28.17"/>
  <polygon fill="#fff" points="-0.17 180.41 52.24 161.6 -0.17 161.6 -0.17 133.43 131.24 133.43 131.24 161.6 78.57 180.41 131.24 180.41 131.24 208.59 -0.17 208.59 "/>
  <polygon fill="#fff" points="0.11 223.64 131.44 223.64 131.44 289.43 103.27 289.43 103.27 251.81 79.77 251.81 79.77 289.43 51.6 289.43 51.6 251.81 28.1 251.81 28.1 289.43 0.11 289.43 "/>
  <polygon fill="#fff" points="0.11 370.28 46.92 370.28 0.11 351.47 46.92 332.65 0.11 332.65 0.11 304.48 131.44 304.48 131.44 332.65 84.45 351.47 131.44 370.28 131.44 398.45 0.11 398.45 "/>
  <path fill="#fff" d="M13.59 465.21L32.4 462v-23.68l-18.81-3.21v-27.99l131.59 24.32v37.54l-131.59 24.41v-28.17l0 0V465.21zM101.4 450.16l-40.83-6.88v13.86L101.4 450.16 101.4 450.16z"/>
  <polygon fill="#fff" points="103.27 545.1 0.11 545.1 0.11 516.92 103.27 516.92 103.27 488.66 131.44 488.66 131.44 573.27 103.27 573.27 "/>
  <polygon fill="#fff" points="0.11 629.71 51.6 629.71 51.6 610.9 0.11 610.9 0.11 582.72 131.44 582.72 131.44 610.9 79.77 610.9 79.77 629.71 131.44 629.71 131.44 657.89 0.11 657.89 "/>
  <polygon fill="#fff" points="0.11 672.93 131.44 672.93 131.44 738.74 103.27 738.74 103.27 701.1 79.77 701.1 79.77 738.74 51.6 738.74 51.6 701.1 28.1 701.1 28.1 738.74 0.11 738.74 "/>
  <path fill="#fff" d="M0.3 772.59l18.62-18.81h93.91l18.8 18.81v37.53l-18.8 18.81h-84.54l-9.35-9.36v16.89H0.3v-63.88l0 0 0 0V772.59zM103.45 800.76v-18.81H28.28v18.81H103.45z"/>
  <polygon fill="#fff" points="13.06 900.34 13.06 862.81 31.86 843.99 144.65 843.99 144.65 872.16 41.23 872.16 41.23 890.98 144.65 890.98 144.65 919.15 31.86 919.15 "/>
  <polygon fill="#fff" points="0.11 934.2 131.44 934.2 131.44 1000 103.27 1000 103.27 962.37 79.77 962.37 79.77 1000 51.6 1000 51.6 962.37 28.1 962.37 28.1 1000 0.11 1000 "/>
</svg>