<?xml version="1.0" encoding="UTF-8"?>
<svg xmlns="http://www.w3.org/2000/svg" version="1.1" width="1000" height="145">
  <g>
    <polygon fill="#fff" points="56.34 145.3 18.81 145.3 0 126.69 0 32.78 18.81 13.98 56.34 13.98 75.16 32.79 75.16 60.97 46.98 60.97 46.98 42.15 28.17 42.15 28.17 117.31 46.98 117.31 46.98 98.5 75.16 98.5 75.16 126.68 "/>
    <rect fill="#fff" x="90.2" y="0.53" width="28.17" height="131.6"/>
    <polygon fill="#fff" points="180.41 145.35 161.6 92.94 161.6 145.35 133.43 145.35 133.43 13.93 161.6 13.93 180.41 66.6 180.41 13.93 208.59 13.93 208.59 145.35 "/>
    <polygon fill="#fff" points="223.64 145.06 223.64 13.74 289.43 13.74 289.43 41.91 251.81 41.91 251.81 65.41 289.43 65.41 289.43 93.58 251.81 93.58 251.81 117.07 289.43 117.07 289.43 145.06 "/>
    <polygon fill="#fff" points="370.28 145.06 370.28 98.26 351.47 145.06 332.65 98.26 332.65 145.06 304.48 145.06 304.48 13.74 332.65 13.74 351.47 60.73 370.28 13.74 398.45 13.74 398.45 145.06 "/>
    <path fill="#fff" d="m465.21 131.59l-3.21-18.81 -23.68 0 -3.21 18.81 -27.99 0 24.32-131.59 37.54 0 24.41 131.59 -28.17 0 0 0zm-15.05-87.82l-6.88 40.83 13.86 0 -6.98-40.83z"/>
    <polygon fill="#fff" points="545.1 41.91 545.1 145.06 516.92 145.06 516.92 41.91 488.66 41.91 488.66 13.74 573.27 13.74 573.27 41.91 "/>
    <polygon fill="#fff" points="629.71 145.06 629.71 93.58 610.9 93.58 610.9 145.06 582.72 145.06 582.72 13.74 610.9 13.74 610.9 65.41 629.71 65.41 629.71 13.74 657.89 13.74 657.89 145.06 "/>
    <polygon fill="#fff" points="672.93 145.06 672.93 13.74 738.74 13.74 738.74 41.91 701.1 41.91 701.1 65.41 738.74 65.41 738.74 93.58 701.1 93.58 701.1 117.07 738.74 117.07 738.74 145.06 "/>
    <path fill="#fff" d="m772.59 144.88l-18.81-18.62 0-93.91 18.81-18.8 37.53 0 18.81 18.8 0 84.54 -9.36 9.35 16.89 0 0 18.64 -63.88 0 0 0 0 0zm28.17-103.15l-18.81 0 0 75.16 18.81 0 0-75.16z"/>
    <polygon fill="#fff" points="900.34 132.12 862.81 132.12 843.99 113.31 843.99 0.53 872.16 0.53 872.16 103.95 890.98 103.95 890.98 0.53 919.15 0.53 919.15 113.31 "/>
    <polygon fill="#fff" points="934.2 145.06 934.2 13.74 1000 13.74 1000 41.91 962.37 41.91 962.37 65.41 1000 65.41 1000 93.58 962.37 93.58 962.37 117.07 1000 117.07 1000 145.06 "/>
  </g>
</svg>